<?xml version="1.0" encoding="utf-8"?>
<svg version="1.1"
	 id="Layer_1" xmlns:cc="http://creativecommons.org/ns#" xmlns:dc="http://purl.org/dc/elements/1.1/" xmlns:rdf="http://www.w3.org/1999/02/22-rdf-syntax-ns#" xmlns:svg="http://www.w3.org/2000/svg"
	 xmlns="http://www.w3.org/2000/svg" xmlns:xlink="http://www.w3.org/1999/xlink" x="0px" y="0px" viewBox="0 0 2246 1649.528"
	 enable-background="new 0 0 2246 1649.528" xml:space="preserve">
<g id="g89">
	<path id="path2500" fill="#F1D18D" stroke="#000000" stroke-width="10.7974" d="M1675.533,1432.261
		c-106.268-82.552-176.29-153.813-267.44-232.262l-4.34,3.989l-108.512,55.845c0,0,2.17-3.989,393.23,360.146
		c4.756,3.138,1.687,3.138,127.524,4.548c0,0-125.837-1.41-1.033,0.146C1734.939,1555.49,1711.997,1453.536,1675.533,1432.261z"/>
	<path id="path2472" fill="#F1D18D" stroke="#000000" stroke-width="10.7974" d="M83.87,541.003
		C273.214,248.842,598.018,77.978,953.142,37.858c258.315-31.924,546.475-8.12,772.706,96.076
		c252.243,141.781,453.474,341,485.779,612.327c9.633,94.043-5.653,192.468-54.799,276.232s-913.478,227.985-1046.059,295.179
		s-320.909,95.501-441.328-6.183c-80.86-51.84-105.393-162.459-156.303-217.389c-168.164-0.732-370.258-46.559-441.921-203.133
		c-51.162-112.929-58.45-189.296,12.389-350.891"/>
	<path id="path5293" fill="#77C572" stroke="#000000" stroke-width="10.7974" d="M1676.618,1427.275
		c-117.959-19.121-178.696-149.209-295.732-176.508c-120.828-80.682-30.919-200.979,77.481-237.889
		c90.811-81.886,230.142-19.978,332.811-79.832c104.073-46.825,233.927-11.28,321.923,44.706
		c92.516,86.73,24.799,201.976-28.121,287.987c-72.314,101.192-202.998,145.367-327.478,163.623
		C1731.49,1429.283,1702.519,1423.619,1676.618,1427.275z"/>
	<path id="path2502" fill="none" stroke="#000000" stroke-width="10.7974" d="M715.784,1341.606
		c36.024,15.631,126.222-5.058,140.43-65.717"/>
	<path id="path2504" fill="none" stroke="#000000" stroke-width="10.7974" d="M767.87,1217.949
		c42.605,69.343,153.914,76.599,213.507,6.783c50.251-18.607-29.564-75.599,47.157-38.58c19.41,4.415,35.106,20.057,55.107,8.861"/>
	<path id="path2506" fill="none" stroke="#000000" stroke-width="10.7974" d="M922.593,1271.658
		c20.216,74.712,62.977,91.72,141.516,68.95"/>
	<path id="path2508" fill="none" stroke="#000000" stroke-width="10.7974" d="M541.638,1131.846
		c30.088-42.491,193.362-33.62,297.057-96.671c66.198-57.713,185.174-58.678,272.955-76.788"/>
	<path id="path2510" fill="none" stroke="#000000" stroke-width="10.7974" d="M518.138,1093.609
		c33.522-88.904,151.566-137.091,227.601-194.832c17.55-12.699,38.487-20.327,56.855-31.851"/>
	<path id="path2512" fill="none" stroke="#000000" stroke-width="10.7974" d="M703.289,917.613
		c-75.034-43.782-174.131-94.374-260.508-39.643"/>
	<path id="path2514" fill="none" stroke="#000000" stroke-width="10.7974" d="M550.846,687.424
		c4.117,92.763,118.065,189.732,30.157,272.373c-61.617,57.745-177.282,53.851-257.794,31.621
		c-21.275-9.177-42.09-19.226-63.177-28.758"/>
	<path id="path2516" fill="none" stroke="#000000" stroke-width="10.7974" d="M333.076,996.665
		c-10.849-3.943-29.967,19.706-38.32,21.839"/>
	<path id="path2518" fill="none" stroke="#000000" stroke-width="10.7974" d="M403.269,1010.526
		c-11.417,11.029-21.89,29.503-53.402,33.08"/>
	<path id="path2520" fill="none" stroke="#000000" stroke-width="10.7974" d="M481.398,1002.548
		c-14.543,24.921-35.771,52.363-63.355,57.939"/>
	<path id="path2522" fill="none" stroke="#000000" stroke-width="10.7974" d="M520.462,942.714
		c-88.251,43.541-198.935,39.899-272.452-27.621c-43.291-30.292-14.114-109.008-87.81-111.991"/>
	<path id="path2524" fill="none" stroke="#000000" stroke-width="10.7974" d="M99.698,843.676
		c12.154,58.178,105.869,99.621,50.025,147.147"/>
	<path id="path2526" fill="none" stroke="#000000" stroke-width="10.7974" d="M34.327,731.302
		c25.146,36.849,98.679,90.027,82.469,3.989c-24.12-50.293,44.456-102.237,95.491-83.767"/>
	<path id="path2528" fill="none" stroke="#000000" stroke-width="10.7974" d="M159.411,702.411
		c68.31,46.589,129.664,140.737,264.028,28.926c-60.159-134.05,87.356-189.517,195.149-156.78
		c148.969,28.37,15.238-134.653,53.197-201.793c57.007-184.047,187.397-19.72,113.448-227.832
		c-23.618-37.217,46.647-36.304,83.304-93.155"/>
	<path id="path2530" fill="none" stroke="#000000" stroke-width="10.7974" d="M663.698,579.723
		c37.067,43.091-21.19,156.323,56.427,207.424"/>
	<path id="path2532" fill="none" stroke="#000000" stroke-width="10.7974" d="M331.76,782.874
		c5.611,106.223,126.924,122.566,183.399,158.43"/>
	<path id="path2534" fill="none" stroke="#000000" stroke-width="10.7974" d="M364.204,707.368
		c-9.023-40.699-40.208-105.601-96.168-123.572c-37.983-48.513-0.338-163.419-81.311-176.08"/>
	<path id="path2536" fill="none" stroke="#000000" stroke-width="10.7974" d="M45.55,655.029
		c28.939-77.758,169.351-117.456,198.808-190.502c35.048-86.908,50.238-138.279,146.778-182.12
		c86.87-56.569,127.164-85.583,233.407-95.691c84.828-35.392,0.716-44.871,97.687-98.354"/>
	<path id="path2540" fill="none" stroke="#000000" stroke-width="10.7974" d="M625.161,187.6
		c-50.044,36.607-119.925,195.415-4.521,123.714c17.401-26.761,61.071-34.3,82.124-6.825"/>
	<path id="path2542" fill="none" stroke="#000000" stroke-width="10.7974" d="M663.698,168.865
		c36.531,8.9,33.632,40.84,56.427,59.834"/>
	<path id="path2544" fill="none" stroke="#000000" stroke-width="10.7974" d="M565.62,193.767
		c9.683-23.701,14.302-42.766,29.112-59.592"/>
	<path id="path2546" fill="none" stroke="#000000" stroke-width="10.7974" d="M472.935,233.898
		c18.328,7.843,24.693-53.861,32.971-61.728"/>
	<path id="path2548" fill="none" stroke="#000000" stroke-width="10.7974" d="M451.014,264.599
		c-16.933,56.035-44.379,108.58-47.745,167.534"/>
	<path id="path2550" fill="none" stroke="#000000" stroke-width="10.7974" d="M294.756,440.112
		c96.425,19.251,6.825-102.385,78.656-143.642"/>
	<path id="path2552" fill="none" stroke="#000000" stroke-width="10.7974" d="M299.097,495.956
		c-17.043-12.928-32.978,59.135-75.586,32.112"/>
	<path id="path2554" fill="none" stroke="#000000" stroke-width="10.7974" d="M364.204,559.779
		c18.009-71.179,62.378-120.298,127.823-133.62c-31.617-44.785-52.04-85.423,26.373-192.344"/>
	<path id="path2556" fill="none" stroke="#000000" stroke-width="10.7974" d="M490.079,432.134
		c31.124-22.534,96.783,40.929,69.448-35.9"/>
	<path id="path2558" fill="none" stroke="#000000" stroke-width="10.7974" d="M548.521,436.807
		c37.086,10.432,10.811,80.419,37.049,103.027"/>
	<path id="path2560" fill="none" stroke="#000000" stroke-width="10.7974" d="M474.996,522.911
		c-4.063,23.591-2.254,33.861,3.333,57.698"/>
	<path id="path2562" fill="none" stroke="#000000" stroke-width="10.7974" d="M865.686,644.272
		c-88.545-49.245-64.879-165.834-44.807-230.958c-103.056-85.063,124.458-100.616,46.823-192.593
		c-25.919-83.463,91.585-91.442,99.831-155.568"/>
	<path id="path2564" fill="none" stroke="#000000" stroke-width="10.7974" d="M867.175,289.701
		c99.334-41.089,157.455,61.075,234.913,90.577"/>
	<path id="path2566" fill="none" stroke="#000000" stroke-width="10.7974" d="M924.128,424.156
		c18.873,34.532,66.476,70.81,117.193,79.778"/>
	<path id="path2568" fill="none" stroke="#000000" stroke-width="10.7974" d="M976.123,564.252
		c90.275-38.295,52.827-135.62,157.185-154.293c75.78-24.986-81.691-116.436,20.908-145.397
		c38.177-35.918,94.942-79.19,6.578-140.099"/>
	<path id="path2570" fill="none" stroke="#000000" stroke-width="10.7974" d="M1210.337,182.484
		c19.429-80.936,148.953,1.716,136.62-97.621c0.005-27.367,54.617-7.978,71.986-39.654"/>
	<path id="path2572" fill="none" stroke="#000000" stroke-width="10.7974" d="M1255.014,117.051
		c15.145-60.851-11.318-34.382-24.463-86.387"/>
	<path id="path2574" fill="none" stroke="#000000" stroke-width="10.7974" d="M961.131,288.09
		c-5.526-90.893,61.07-52.496,91.194-185.753c24.546-54.599,66.34-28.498,93.912-71.432"/>
	<path id="path2576" fill="none" stroke="#000000" stroke-width="10.7974" d="M1236.644,539.834
		c-24.099-45.245-46.987-108.15,28.506-141.368c45.338-37.605-37.507-107.933,53.397-87.823
		c68.67,19.213-13.817-95.468,139.462-133.799c24.05-49.108,90.201-18.068,104.172-83.767"/>
	<path id="path2578" fill="none" stroke="#000000" stroke-width="10.7974" d="M1336.475,420.167
		c-15.088-71.184,130.52-69.135,17.362-119.667"/>
	<path id="path2580" fill="none" stroke="#000000" stroke-width="10.7974" d="M1385.973,544.749
		c76.432-39.254,131.66-105.599,124.385-190.5"/>
	<path id="path2582" fill="none" stroke="#000000" stroke-width="10.7974" d="M1519.784,140.701
		c76.422,12.574,152.651,84.777,233.94,107.706c55.312,57.636,163.801-1.681,157.164,104.581
		c10.865,23.773,57.606,76.565,91.744,72.336"/>
	<path id="path2584" fill="none" stroke="#000000" stroke-width="10.7974" d="M1608.918,178.696
		c-26.067,53.933-117.934,110.113-98.297,180.469"/>
	<path id="path2586" fill="none" stroke="#000000" stroke-width="10.7974" d="M1564.941,241.834
		c67.411,1.218,185.552-7.067,31.437,89.609"/>
	<path id="path2588" fill="none" stroke="#000000" stroke-width="10.7974" d="M1465.9,709.947
		c159.316-63.156,47.014-124.84,128.653-150.369c89.892-44.231,63.175-157.106,139.838-202.888
		c29.61-16.862,25.049-66.061,33.328-92.816"/>
	<path id="path2590" fill="none" stroke="#000000" stroke-width="10.7974" d="M1563.715,596.889
		c-1.878-17.659-6.391-56.74-14.556-73.01"/>
	<path id="path2592" fill="none" stroke="#000000" stroke-width="10.7974" d="M1539.425,672.395
		c60.502,24.559,170.296,108.651,68.953,145.205c-17.891-3.474-20.215-31.624-63.56-28.116"/>
	<path id="path2594" fill="none" stroke="#000000" stroke-width="10.7974" d="M1624.219,726.629
		c-3.785-35.455,65.455-37.15,24.772-91.061"/>
	<path id="path2596" fill="none" stroke="#000000" stroke-width="10.7974" d="M1601.245,966.648
		c1.643-33.246,8.456-64.771,21.702-95.734"/>
	<path id="path2598" fill="none" stroke="#000000" stroke-width="10.7974" d="M1705.417,958.228
		c-38.156-174.975,70.057-59.65,67.525-287.036c106.727-34.896,28.043-75.433,123.457-187.202c-0.291-37.651,3.27,5.313-4.34-7.978"
		/>
	<path id="path2600" fill="none" stroke="#000000" stroke-width="10.7974" d="M1854.188,550.462
		c12.044-26.161,82.925,3.84,107.318-6.638"/>
	<path id="path2602" fill="none" stroke="#000000" stroke-width="10.7974" d="M1929.851,545.676
		c37.658,67.541,163.933,53.098,144.507,149.726"/>
	<path id="path2604" fill="none" stroke="#000000" stroke-width="10.7974" d="M1887.718,679.446
		c130.89,51.569,49.976,82.384,167.88,138.285"/>
	<path id="path2606" fill="none" stroke="#000000" stroke-width="10.7974" d="M1951.29,626.864
		c18.047,21.337-33.768,50.089-37.53,68.538"/>
	<path id="path2608" fill="none" stroke="#000000" stroke-width="10.7974" d="M1822.874,688.551
		c-0.052,111.595,84.955,175.604,106.451,219.473"/>
	<path id="path2610" fill="none" stroke="#000000" stroke-width="10.7974" d="M1821.326,695.106
		c73.728,136.002,223.885,143.202,300.782,102.254c101.552,29.534,55.271,167.67,32.55,235.104"/>
	<path id="path2612" fill="none" stroke="#000000" stroke-width="10.7974" d="M2109.61,880.986
		c-6.719,20.58-13.161,37.545-21.439,72.526"/>
	<path id="path2614" fill="none" stroke="#000000" stroke-width="10.7974" d="M2065.678,882.881
		c-4.318,28.2-42.337,4.325-78.655,37.552"/>
	<path id="path2616" fill="none" stroke="#000000" stroke-width="10.7974" d="M2117.083,800.123
		c55.742-45.664,44.674-181.906-8-212.422"/>
	<path id="path2618" fill="none" stroke="#000000" stroke-width="10.7974" d="M2152.86,715.93
		c5.789-16.57,32.796-34.131,43.032-48.451"/>
	<path id="path2620" fill="none" stroke="#000000" stroke-width="10.7974" d="M2027.962,608.2
		c43.328-127.568-97.612-232.838-201.923-180.18c-92.739-5.075-71.885,69.082-88.664,122.049
		c-39.514,12.671-76.574-5.341-88.384-42.146"/>
	<path id="path2622" fill="none" stroke="#000000" stroke-width="10.7974" d="M1861.675,412.189
		c-1.633-46.145-2.802-98.57-60.767-135.623"/>
	<path id="path2624" fill="none" stroke="#000000" stroke-width="10.7974" d="M1691.31,213.741
		c64.914-31.985,92.493-26.967,99.831-35.9"/>
	<path id="path2626" fill="none" stroke="#000000" stroke-width="10.7974" d="M1740.141,188.81
		c-56.795-42.951-122.657-69.807-186.641-99.723"/>
	<path id="path2628" fill="none" stroke="#000000" stroke-width="10.7974" d="M2034.55,535.12
		c8.24-19.95,64.596-36.278,82.251-48.351"/>
	<path id="path2630" fill="none" stroke="#000000" stroke-width="10.7974" d="M1329.964,1180.055
		c95.648-3.963,191.515-38.399,290.395-52.924c85.187,32.545,189.347-2.94,285.345,3.127c79.747,4.508,162.484,5.661,241.916-11.589
		"/>
	<path id="path2632" fill="none" stroke="#000000" stroke-width="10.7974" d="M1375.539,1190.027
		c69.741,46.691,193.355,49.885,221.365-39.889"/>
	<path id="path2634" fill="none" stroke="#000000" stroke-width="10.7974" d="M1416.402,1181.323
		c18.515,6.007-63.63,41.382-35.623,65.032"/>
	<path id="path2636" fill="none" stroke="#000000" stroke-width="10.7974" d="M1459.062,1174.956
		c-17.329,15.464-44.876,68.768-44.458,90.86"/>
	<path id="path2638" fill="none" stroke="#000000" stroke-width="10.7974" d="M1493.786,1163.916
		c-22.79,20.535-56.625,97.161-35.777,121.845"/>
	<path id="path2640" fill="none" stroke="#000000" stroke-width="10.7974" d="M1529.518,1157.59
		c-56.701,86.576-3.755,174.538,75.937,200.886c98.279,44.074,151.939,40.674,260.56,44.615"/>
	<path id="path2642" fill="none" stroke="#000000" stroke-width="10.7974" d="M1568.101,1148.845
		c-32.618,156.623,112.098,149.84,217.579,176.525c55.633,13.496,177.246,15.163,232.779,4.269"/>
	<path id="path2644" fill="none" stroke="#000000" stroke-width="10.7974" d="M1579.389,1141.451
		c21.916,117.155,101.052,122.416,197.97,135.584c103.846,9.037,201.511,25.414,302.13-7.23l-26.833,3.989"/>
	<path id="path2646" fill="none" stroke="#000000" stroke-width="10.7974" d="M1595.588,1146.308
		c39.159,87.115,196.879,103.647,293.299,100.874c51.693,9.699,234.48-17.398,212.831-12.108"/>
	<path id="path2648" fill="none" stroke="#000000" stroke-width="10.7974" d="M1610.189,1139.782
		c23.829,61.756,195.519,76.578,300.811,80.788c70.144,5.958,174.997-19.069,206.764-18.576"/>
	<path id="path2650" fill="none" stroke="#000000" stroke-width="10.7974" d="M1617.99,1138.13
		c87.806,45.469,257.3,52.54,363.117,47.781c53.105-3.307,101.945-6.074,158.359-19.817"/>
	<path id="path2652" fill="none" stroke="#000000" stroke-width="10.7974" d="M1543.066,1159.401
		c-65.72,149.711,119.872,173.606,195.091,199.839c55.175,11.307,141.478,16.369,198.141,17.339"/>
	<path id="path2806" fill="#FFB380" stroke="#000000" stroke-width="10.7974" d="M1206.26,693.407
		c63.524-10.419,117.031,7.581,153.954,31.588c47.394,29.729,88.981,88.566,80.432,140.933
		c-25.942,49.73-84.971,70.183-141.348,67.011c-31.156-0.657-61.509-6.407-93.039-4.185"/>
	<path id="path2804" fill="#EA6BE0" stroke="#000000" stroke-width="10.7974" d="M930.35,880.49
		c7.631,19.414,60.432,80.326,98,79.611c65.297,2.707,136.362-0.471,190.395-38.57c48.706-24.74,73.778-80.13,61.283-129.571
		c-9.13-61.559-65.547-96.764-125.68-123.796c-47.721-20.701-99.627-22.496-151.781-13.819
		c-46.182,17.305-47.737,53.168-77.727,79.03c-22.016,24.145-41.14,46.902-24.701,79.225
		C926.216,837.088,920.907,838.849,930.35,880.49z M977.299,936.731c-7.109-12.087-37.413-34.921-47.092-55.227
		c-13.367-28.043,8.381-19.376-27.873-64.711c-24.944-31.192,0.51-62.907,23.216-82.733c25.425-22.2,29.55-62.879,77.327-79.885
		c73.915-36.113,129.586-17.898,208.018-7.05c75.396,10.863,152.119,35.878,204.044,89.669
		c67.261,58.767,60.692,182.19-25.04,223.46c-33.324,16.042-72.614,33.973-102.502,40.28
		c-46.214,12.085-97.252,31.409-144.133,10.741c-41.683-12.72-93.623-14.605-127.871,14.678
		c-17.414,36.017,30.486,61.697,64.171,62.23c40.41,7.836,60.751-30.04,95.21-38.041c44.002-11.063,80.036-12.125,132.787-29.928
		c78.902-17.77,149.725-57.186,185.278-124.358c13.057-41.398,19.472-76.754-0.999-140.776
		c-10.577-32.244-51.853-68.831-82.706-93.595c-66.593-46.401-130.716-72.069-217.279-93.434
		c-58.362-20.203-122.321-17.139-182.839-8.59c-44.35,8.081-91.177,19.836-121.371,53.164
		c-40.723,41.517-66.404,94.857-78.937,149.167c-7.163,44.58-8.398,95.616,25.049,132.09
		C852.39,916.576,996.41,969.225,977.299,936.731z"/>
	<path id="path2484" fill="#FFD5D5" stroke="#000000" stroke-width="10.7974" d="M1438.477,1614.846
		c-53.334-44.621-119.281-85.104-140.746-152.091c-14.785-19.698,5.239-38.35,0.765-56.329
		c-71.2-28.555-151.832-50.911-201.601-109.368c-20.844-25.793-33.942-60.663-18.681-91.637
		c16.479-42.841,54.998-75.477,97.663-96.668c-7.073-34.802,37.576-55.852,67.558-37.79c39.925,13.763,34.131,53.707,40.901,83.719
		c29.816,85.131,87.126,162.736,163.418,218.274c97.469,56.962,190.844,130.024,238.806,228.862
		c11.14,16.072,7.492,23.68-13.513,19.164c17.268,0.695,21.523,0.612,1.209,0.166c-78.952-1.875-157.908-3.578-236.864-5.305"/>
	<path id="path2816" fill="none" stroke="#000000" stroke-width="10.7974" d="M1997.79,427.529
		c13.208-78.805-13.181-103.081-13.181-103.081"/>
	<path id="path2818" fill="none" stroke="#000000" stroke-width="10.7974" d="M1773.026,187.437
		c71.645,33.417,104.039,100.349,104.039,100.349"/>
	<path id="path2880" fill="#FFD5D5" d="M1385.569,1066.431c29.568-25.009,65.498-46.089,124.774-73.205
		c26.547-12.145,45.569-15.388,119.698-20.408c53.654-3.634,100.143-9.923,118.827-16.076c16.88-5.559,47.053-15.681,67.049-22.494
		c53.671-18.287,120.926-17.468,184.625,2.25c99.017,30.65,138.636,65.381,148.27,129.979l3.789,25.403l-398.295-0.224
		l-398.295-0.224L1385.569,1066.431z"/>
	<path id="path2882" fill="#FFD5D5" d="M1334.528,1154.829c0-9.397,2.694-23.597,5.986-31.556l5.986-14.47l400.682,0.649
		c274.359,0.444,392.941,2.383,376.128,6.149c-13.505,3.025-81.18,6.179-150.391,7.008c-69.21,0.829-163.89,3.529-210.4,5.999
		c-61.042,3.242-93.482,2.551-116.629-2.485c-29.954-6.516-39.141-5.487-139.488,15.632
		c-59.082,12.435-121.924,24.308-139.648,26.384l-32.226,3.776L1334.528,1154.829L1334.528,1154.829z"/>
	<path id="path2890" fill="#D2E09B" d="M1857.104,1241.978c6.33-0.609,16.689-0.609,23.019,0c6.33,0.609,1.151,1.106-11.509,1.106
		C1855.953,1243.085,1850.773,1242.587,1857.104,1241.978L1857.104,1241.978z"/>
	<path id="path2494" fill="#8F2DE0" stroke="#000000" stroke-width="10.7974" d="M1161.228,764.709
		c-77.803-90.507-219.462,9.924-136.766,95.854C1094.858,933.126,1220.939,850.638,1161.228,764.709z"/>
</g>
</svg>
